<?xml version="1.0" encoding="utf-8"?>
<!-- Generator: Adobe Illustrator 28.1.0, SVG Export Plug-In . SVG Version: 6.00 Build 0)  -->
<svg version="1.1" id="Layer_1" xmlns="http://www.w3.org/2000/svg" xmlns:xlink="http://www.w3.org/1999/xlink" x="0px" y="0px"
	 viewBox="0 0 16 16" style="enable-background:new 0 0 16 16;" xml:space="preserve">
<g>
	<path d="M7,7L6,8v2l1,1h2l1-1V8L9,7H7z M9,10H7V8h2V10z"/>
	<path d="M12,1h-2L9,0H7L6,1H4L3,2v13l1,1h8l1-1V2L12,1z M7,1h2v2H7V1z M12,3h-1v1h1v1h-1v1h1v1h-1v1h1v1h-1v1h1v1h-1v1h1v1h-1v1h1
		v1H4v-1h1v-1H4v-1h1v-1H4v-1h1V9H4V8h1V7H4V6h1V5H4V4h1V3H4V2h2v1l1,1h2l1-1V2h2V3z"/>
</g>
</svg>
