<?xml version="1.0" encoding="utf-8"?>
<!-- Generator: Adobe Illustrator 28.1.0, SVG Export Plug-In . SVG Version: 6.00 Build 0)  -->
<svg version="1.1" id="Layer_1" xmlns="http://www.w3.org/2000/svg" xmlns:xlink="http://www.w3.org/1999/xlink" x="0px" y="0px"
	 viewBox="0 0 120 60" style="enable-background:new 0 0 120 60;" xml:space="preserve">
<style type="text/css">
	.st0{fill:#000000;}
</style>
<g>
	<g>
		<path class="st0" d="M5.7916374,30.8575439c0.6175508-0.2780743,1.0784316-0.651638,1.3825321-1.1208382
			c0.3040633-0.4690533,0.4560952-1.0547619,0.4560952-1.7573109c0-0.9900475-0.3300529-1.7560596-0.9900103-2.2982941
			c-0.6601419-0.5420132-1.5981741-0.8132401-2.814502-0.8132401H0.1981935C0.0887159,24.8678608,0,24.9566135,0,25.0660534
			v9.8999195c0,0.109478,0.0887159,0.1981926,0.1981935,0.1981926h1.7251005c0.1094407,0,0.1981934-0.0887146,0.1981934-0.1981926
			v-3.5709801h1.6901295l1.8642483,3.639782c0.0406766,0.0794373,0.1224351,0.1293907,0.2116661,0.1293907h1.8557816
			c0.1493444,0,0.245018-0.1589508,0.1751127-0.2909584L5.7916374,30.8575439z M5.0703516,29.2699718
			c-0.2924314,0.2711906-0.7048678,0.40662-1.2375314,0.40662H2.1214874V26.586298h1.7042651
			c0.5703213,0,0.9935443,0.1391106,1.2693365,0.417223c0.2757921,0.2782574,0.4136882,0.660141,0.4136882,1.1455746
			C5.5087771,28.6254005,5.3625984,28.9989281,5.0703516,29.2699718z"/>
		<path class="st0" d="M15.1191359,33.3962517v-3.3165722c0-0.8579674-0.2770433-1.523962-0.8309107-1.9977646
			c-0.5540876-0.4738026-1.3024302-0.7106838-2.2452478-0.7106838c-0.6222992,0-1.1834545,0.1073055-1.6830616,0.3217697
			c-0.4997902,0.2146111-0.8864222,0.5103931-1.1597481,0.8874893c-0.2265387,0.3124943-0.3591709,0.6475525-0.3980436,1.0051403
			c-0.0129576,0.1194172,0.0775986,0.2253246,0.1977148,0.2253246h1.6516247c0.0951948,0,0.1798611-0.0677338,0.1935186-0.1618977
			c0.0308113-0.2118874,0.1248646-0.384203,0.2822342-0.516983c0.1955061-0.1649513,0.4654818-0.2475204,0.8096704-0.2475204
			c0.3912697,0,0.6776638,0.1060905,0.8592186,0.3182373c0.1813707,0.2121449,0.2722588,0.4950047,0.2722588,0.8485794v0.4384632
			h-0.9405355c-1.1362267,0.0047474-2.0047951,0.2239971-2.6058912,0.6576385
			c-0.6010962,0.4338608-0.9016256,1.05616-0.9016256,1.8669357c0,0.6601028,0.2462692,1.2069397,0.7389917,1.6406174
			c0.4925394,0.4338226,1.1137714,0.6505699,1.8633652,0.6505699c0.792038,0,1.4355402-0.2757912,1.9305458-0.8273773
			c0.0339766,0.2189178,0.0844822,0.40905,0.1517,0.570507c0.0299654,0.0720024,0.1035147,0.1154404,0.1814814,0.1154404h1.6932955
			c0.1465464,0,0.2369194-0.1505585,0.1770267-0.2843323C15.1778135,34.4803162,15.1227808,33.9748573,15.1191359,33.3962517z
			 M13.0683641,33.0002365c-0.1226931,0.2263145-0.3111687,0.40662-0.5657206,0.5409813
			c-0.2545891,0.1343613-0.5328474,0.2015419-0.8344812,0.2015419c-0.3111315,0-0.5563335-0.0823822-0.7354221-0.2474823
			c-0.1792717-0.1649551-0.2687244-0.3748169-0.2687244-0.629406l0.0070686-0.1201897
			c0.0659294-0.7071877,0.610446-1.0607605,1.6335497-1.0607605h0.76373V33.0002365z"/>
		<path class="st0" d="M21.0470867,30.9070549c-0.3489742-0.1272945-0.7778645-0.2415199-1.2870064-0.3429737
			c-0.5091782-0.101305-0.8710709-0.2215309-1.0854988-0.3606796c-0.2146492-0.1389256-0.3217697-0.3217316-0.3217697-0.5480499
			c0-0.2404156,0.0942364-0.4384251,0.2828598-0.5939922c0.1884747-0.1556015,0.4548798-0.2333851,0.7991047-0.2333851
			c0.4006214,0,0.6952972,0.0954895,0.8839569,0.2864323c0.1519203,0.1539078,0.2426987,0.3408012,0.2722206,0.5605659
			c0.0127735,0.0952682,0.0979195,0.1642532,0.1940708,0.1642532h1.6538696c0.112608,0,0.2072506-0.0941277,0.1983776-0.2063656
			c-0.0505047-0.6369514-0.3389606-1.162178-0.8653278-1.5756817c-0.5823593-0.4571629-1.3589725-0.6859474-2.3300991-0.6859474
			c-0.9099445,0-1.6466179,0.2275314-2.2098732,0.6824131c-0.5634365,0.4550648-0.8450813,1.0218525-0.8450813,1.7007313
			c0,1.1645336,0.9097595,1.9376125,2.7296505,2.3194962c0.5468349,0.113121,0.9440689,0.2416687,1.1915894,0.3853798
			c0.2474842,0.1439323,0.3712463,0.3406906,0.3712463,0.5904961c0,0.2404518-0.1002388,0.4348907-0.3005295,0.5834236
			c-0.2004776,0.1484985-0.4962578,0.2227478-0.8874912,0.2227478c-0.4197254,0-0.7543793-0.0965195-1.0041828-0.2899284
			c-0.2124386-0.1642151-0.3413525-0.3896866-0.386816-0.6765594c-0.0146866-0.0926895-0.0998325-0.1579208-0.1936283-0.1579208
			h-1.5513496c-0.1200066,0-0.209753,0.1056137-0.1974945,0.2249908c0.0388355,0.3775024,0.1764374,0.7326622,0.412878,1.0655861
			c0.2828617,0.3984833,0.6728802,0.711937,1.170351,0.9405365c0.497324,0.2285995,1.0665779,0.3429718,1.707798,0.3429718
			c0.9476032,0,1.7207203-0.2156792,2.3194981-0.6470375c0.598629-0.4313927,0.8980904-0.9958611,0.8980904-1.6936607
			C22.6665001,31.9890213,22.126585,31.3030739,21.0470867,30.9070549z"/>
		<path class="st0" d="M27.7941322,27.3712311c-0.7967873,0-1.4426098,0.2969952-1.9376144,0.8910236l-0.0537815-0.5700264
			c-0.0096073-0.1017838-0.095047-0.1795673-0.1973095-0.1795673H24.088789c-0.1094398,0-0.1981926,0.0887165-0.1981926,0.1981926
			v10.1969147c0,0.109478,0.0887527,0.1981926,0.1981926,0.1981926h1.6473179c0.109478,0,0.1981945-0.0887146,0.1981945-0.1981926
			V34.499424c0.47612,0.5374489,1.1007023,0.8061714,1.8740025,0.8061714c0.9097614,0,1.6322975-0.354641,2.167429-1.0642586
			c0.5349808-0.7094688,0.802639-1.6535378,0.802639-2.8322086v-0.1060543c0-1.2257137-0.2616577-2.1874542-0.7849331-2.8852539
			C29.4701252,27.7202053,28.7369862,27.3712311,27.7941322,27.3712311z M27.2708549,33.6579094
			c-0.6412201,0-1.0867519-0.2520866-1.3365536-0.7566605v-3.1327381c0.2404518-0.4902191,0.6811981-0.7354584,1.3224182-0.7354584
			c0.4808693,0,0.8473282,0.1934071,1.0996342,0.5798931c0.2520866,0.386631,0.3783131,0.9359341,0.3783131,1.6476841
			C28.7346668,32.8588028,28.2467289,33.6579094,27.2708549,33.6579094z"/>
		<path class="st0" d="M35.8796806,27.3712311c-0.7685127,0-1.3885307,0.2757912-1.8598671,0.8273773v-3.6982746
			c0-0.1094418-0.0887146-0.1981945-0.1981583-0.1981945h-1.6473541c-0.1094398,0-0.1981544,0.0887527-0.1981544,0.1981945
			v10.4656391c0,0.109478,0.0887146,0.1981926,0.1981544,0.1981926h1.4634094c0.1008263,0,0.1856041-0.0757217,0.1969414-0.1759224
			l0.0720406-0.6373177c0.4950027,0.6364326,1.15728,0.95467,1.9871254,0.95467
			c0.9380302,0,1.6688881-0.3429718,2.1921997-1.0289192c0.5233154-0.6859474,0.784935-1.6416855,0.784935-2.867548V31.295969
			c0-1.2445984-0.265152-2.2098713-0.795536-2.8958187C37.5450363,27.7142048,36.8131142,27.3712311,35.8796806,27.3712311z
			 M36.6787491,32.6820374c-0.2075424,0.6505699-0.6412201,0.975872-1.301178,0.975872
			c-0.6553574,0-1.1079178-0.2687225-1.3577576-0.8061714v-3.0195808c0.2450562-0.5326633,0.6930504-0.7991047,1.3436241-0.7991047
			c0.4854698,0,0.8508987,0.1780567,1.0960999,0.5339146c0.2450562,0.3560791,0.3677483,0.9205475,0.3677483,1.6936626
			C36.8272858,31.8970661,36.7777748,32.3708687,36.6787491,32.6820374z"/>
		<path class="st0" d="M43.3237915,27.3712311c-0.6978035,0-1.3188477,0.1638851-1.8633652,0.4914703
			c-0.5445175,0.3277702-0.9652748,0.7945042-1.2623062,1.4002018c-0.2969971,0.6058445-0.4454956,1.2930431-0.4454956,2.0613747
			v0.1980095c0,1.1456127,0.3523254,2.062624,1.0571938,2.7508526c0.7046814,0.6884155,1.6181641,1.0324554,2.7402534,1.0324554
			c0.6364708,0,1.2163277-0.1214409,1.7396393-0.3641777c0.4692383-0.2176666,0.8511963-0.512085,1.1461296-0.8834038
			c0.0592308-0.074543,0.0526047-0.1827316-0.010788-0.2537422l-0.7410164-0.829731
			c-0.0767517-0.0859184-0.2135429-0.0940552-0.2920265-0.0097198c-0.4298477,0.4620972-0.9990273,0.6930885-1.7075768,0.6930885
			c-0.50914,0-0.9298973-0.1508179-1.2622681-0.4525986c-0.3323708-0.3015976-0.5315971-0.7023621-0.5975647-1.2021561h4.6741867
			c0.1094398,0,0.1981926-0.0887508,0.1981926-0.1981907v-0.6362514c0-1.2115803-0.3005638-2.1473293-0.9016609-2.8074341
			C45.1942596,27.7012825,44.3703804,27.3712311,43.3237915,27.3712311z M44.6886139,30.6100235h-2.8427696
			c0.070713-0.5112762,0.2320938-0.9044609,0.4844017-1.1790009c0.2520866-0.274725,0.580925-0.4121056,0.9864769-0.4121056
			c0.4336777,0,0.7683296,0.1242752,1.0041809,0.3728638c0.2356682,0.2487354,0.3581772,0.6002121,0.3677101,1.0549088V30.6100235z"
			/>
		<path class="st0" d="M52.0234299,27.4233551c-0.1543121-0.0346756-0.3166542-0.052124-0.4869804-0.052124
			c-0.7262917,0-1.2941093,0.3512917-1.7042656,1.0536575l-0.0450554-0.7262917
			c-0.0064812-0.1045094-0.093132-0.185936-0.1977882-0.185936h-1.5461235c-0.1094398,0-0.1981583,0.0887165-0.1981583,0.1981926
			v7.2551193c0,0.109478,0.0887184,0.1981926,0.1981583,0.1981926h1.6473541c0.1094398,0,0.1981583-0.0887146,0.1981583-0.1981926
			v-4.8085117c0.2404518-0.5233135,0.7471275-0.7849693,1.5204277-0.7849693c0.156044,0,0.3299408,0.0102329,0.5217285,0.0306644
			c0.1149254,0.0122204,0.2152023-0.0787411,0.2168579-0.1942921l0.0228958-1.591032
			C52.1719666,27.526907,52.1121101,27.4433079,52.0234299,27.4233551z"/>
		<path class="st0" d="M57.1885338,27.4233551c-0.1543121-0.0346756-0.3166504-0.052124-0.4869804-0.052124
			c-0.7259216,0-1.2941093,0.3512917-1.7042618,1.0536575l-0.0450592-0.7262917
			c-0.0064774-0.1045094-0.0930977-0.185936-0.1977882-0.185936h-1.5460854c-0.109478,0-0.1981926,0.0887165-0.1981926,0.1981926
			v7.2551193c0,0.109478,0.0887146,0.1981926,0.1981926,0.1981926h1.647316c0.1094398,0,0.1981926-0.0887146,0.1981926-0.1981926
			v-4.8085117c0.2404175-0.5233135,0.7474594-0.7849693,1.5203934-0.7849693c0.156044,0,0.3300514,0.0102329,0.5217667,0.0306263
			c0.1149254,0.0122223,0.2152023-0.0787029,0.2168579-0.1942902l0.0228958-1.5909958
			C57.3370705,27.526907,57.2772522,27.4433079,57.1885338,27.4233551z"/>
		<path class="st0" d="M64.761261,27.512661h-1.7655525c-0.0877228,0-0.1649895,0.0576477-0.1899872,0.1417236l-1.3721886,4.6174965
			l-1.3791428-4.617754c-0.0250702-0.0839291-0.1022987-0.1414661-0.1899109-0.1414661h-1.7724762
			c-0.1364632,0-0.2320976,0.1346931-0.1870766,0.2635345L60.493,35.1853676l-0.2404175,0.629406
			c-0.1085587,0.2732887-0.2581215,0.469017-0.4490662,0.5869217c-0.1909409,0.1177635-0.3819199,0.1858253-0.7683678,0.1858253
			l-0.2030869-0.007988c-0.1124229-0.0044174-0.2059631,0.0855141-0.2059631,0.1980476v1.188755
			c0,0.0904846,0.0612564,0.1722794,0.1491623,0.1938858c0.2553635,0.0627632,0.5073013,0.0942383,0.7560005,0.0942383
			c1.0511894,0,1.8057518-0.4997902,2.2629166-1.4991875l0.1697388-0.4030876l2.9844933-8.57621
			C64.993248,27.6472073,64.8976135,27.512661,64.761261,27.512661z"/>
		<path class="st0" d="M75.6439743,25.2921867c-0.5869598-0.282896-1.2669067-0.4243259-2.0401688-0.4243259h-3.8184967
			c-0.1094437,0-0.1981964,0.0887527-0.1981964,0.1981926v9.8999195c0,0.109478,0.0887527,0.1981926,0.1981964,0.1981926h1.7250977
			c0.1094742,0,0.1981964-0.0887146,0.1981964-0.1981926v-3.4295502h1.8598251c1.220932,0,2.177002-0.2909946,2.8675461-0.873354
			c0.6905518-0.5821762,1.036026-1.3777103,1.036026-2.3866787c0-0.6647053-0.1580658-1.2575188-0.4738007-1.778513
			C76.6824341,25.977066,76.2309036,25.5750465,75.6439743,25.2921867z M74.8873138,29.4220028
			c-0.2945251,0.2641239-0.7223892,0.396019-1.2835083,0.396019h-1.8952026V26.586298h1.9447174
			c0.5232773,0.0095348,0.9334259,0.1697006,1.2304611,0.4808693c0.2969971,0.3111305,0.4454956,0.7190037,0.4454956,1.2233582
			C75.329277,28.7809658,75.1818466,29.1580639,74.8873138,29.4220028z"/>
		<path class="st0" d="M79.6203613,24.4789467c-0.3536072,0-0.6329346,0.0989857-0.8380127,0.2969952
			s-0.3076019,0.4502792-0.3076019,0.7566624c0,0.3111668,0.1050262,0.5657196,0.3146667,0.7637291
			c0.2096786,0.1980095,0.486908,0.2970314,0.8309479,0.2970314c0.3440018,0,0.6212311-0.0990219,0.8309097-0.2970314
			s0.3146667-0.4525623,0.3146667-0.7637291c0-0.3063831-0.1035843-0.5586529-0.3111343-0.7566624
			C80.247261,24.5779324,79.9693375,24.4789467,79.6203613,24.4789467z"/>
		<path class="st0" d="M80.4475555,27.512661h-1.6544189c-0.1094437,0-0.1981583,0.0887165-0.1981583,0.1981926v7.2551193
			c0,0.109478,0.0887146,0.1981926,0.1981583,0.1981926h1.6544189c0.1094437,0,0.1981964-0.0887146,0.1981964-0.1981926v-7.2551193
			C80.645752,27.6013775,80.5569992,27.512661,80.4475555,27.512661z"/>
		<path class="st0" d="M93.7177963,24.9009171h-3.7954254v10.2907486h1.3570251v-4.0286598h2.424263
			c1.1638336,0,2.0579147-0.2697544,2.6822357-0.8092651c0.6243286-0.5395107,0.9364853-1.3087254,0.9364853-2.3076439
			c0-0.9470882-0.3192291-1.7080555-0.9576874-2.2829056S94.8439331,24.9009171,93.7177963,24.9009171z M95.3857956,29.5400581
			c-0.3863678,0.3421993-0.9423752,0.5132999-1.6679993,0.5132999h-2.4384003v-4.0427933h2.5161438
			c0.6737976,0.0141354,1.2038879,0.2052612,1.5902557,0.5736713c0.3863754,0.3681164,0.579567,0.8587399,0.579567,1.4724636
			C95.9653625,28.7034054,95.772171,29.1978569,95.3857956,29.5400581z"/>
		<rect x="98.8160477" y="27.5442829" class="st0" width="1.3075469" height="7.6473818"/>
		<path class="st0" d="M99.480423,24.7595615c-0.2544403,0-0.4464493,0.0730324-0.5760269,0.219101
			s-0.1943665,0.3251209-0.1943665,0.5371552s0.0647888,0.3887291,0.1943665,0.5300865
			c0.1295776,0.1413555,0.3215866,0.2120342,0.5760269,0.2120342s0.4476318-0.0706787,0.5795593-0.2120342
			c0.1319351-0.1413574,0.1978989-0.3180523,0.1978989-0.5300865s-0.0659637-0.3910866-0.1978989-0.5371552
			C99.9280548,24.8325939,99.7348633,24.7595615,99.480423,24.7595615z"/>
		<path class="st0" d="M103.5986099,29.1946182c0.3651657-0.4782562,0.8799438-0.7173843,1.5443192-0.7173843
			c0.4947433,0,0.9105682,0.1590271,1.247467,0.4770775c0.3368988,0.3180523,0.5241928,0.724453,0.5618896,1.2192001h1.2368698
			c-0.0376968-0.8198681-0.3404312-1.486599-0.9082108-2.0001926c-0.5677872-0.5135956-1.2804565-0.7703934-2.1380157-0.7703934
			c-0.6973648,0-1.3016586,0.1602039-1.8128967,0.4806118s-0.9035034,0.7703934-1.176796,1.3499546
			c-0.2732849,0.5795612-0.409935,1.2415791-0.409935,1.9860573v0.2191029c0,1.2062416,0.3074493,2.1568642,0.9223557,2.8518639
			c0.6148987,0.6950035,1.4430084,1.0425034,2.4843369,1.0425034c0.5183029,0,1.0095215-0.117794,1.4736404-0.3533897
			s0.8351822-0.5512886,1.1131821-0.9470863c0.2779999-0.3958015,0.4287796-0.8128014,0.4523392-1.2510071h-1.2368698
			c-0.0376968,0.4240685-0.2308807,0.777462-0.5795593,1.060173c-0.3486786,0.2827148-0.7562561,0.4240723-1.2227325,0.4240723
			c-0.6737976,0-1.1921082-0.2379532-1.554924-0.7138519c-0.3628082-0.4758987-0.54422-1.1544113-0.54422-2.035532v-0.2473736
			C103.0508499,30.3643417,103.2334366,29.6728745,103.5986099,29.1946182z"/>
		<path class="st0" d="M112.7744064,27.4029255c-0.6737976,0-1.2733841,0.1625595-1.7987595,0.4876804
			c-0.5253754,0.325119-0.9353104,0.7868824-1.229805,1.3852921c-0.294487,0.5984097-0.4417343,1.2722073-0.4417343,2.0213966
			v0.0918827c0,1.1873913,0.3215866,2.1415501,0.9647522,2.8624668c0.6431732,0.7209167,1.4830704,1.0813751,2.5196838,1.0813751
			c0.6879349,0,1.2969437-0.1649132,1.8270264-0.4947472c0.5300903-0.3298302,0.9376678-0.7904167,1.2227325-1.3817596
			c0.2850723-0.5913391,0.4276047-1.2592468,0.4276047-2.0037251v-0.0918827c0-1.1968174-0.3215866-2.1556854-0.9647598-2.8766022
			C114.6579819,27.7633839,113.8157272,27.4029255,112.7744064,27.4029255z M114.3717346,33.484787
			c-0.3910904,0.5206604-0.9188156,0.7809944-1.5831909,0.7809944c-0.659668,0-1.1862183-0.2567978-1.5796585-0.7703934
			c-0.3934479-0.5135956-0.5901642-1.1944618-0.5901642-2.0426006c0-0.9565125,0.1978989-1.6915665,0.5936966-2.2051601
			c0.3957977-0.5135956,0.9164581-0.7703934,1.5619888-0.7703934c0.6596603,0,1.1885681,0.2603321,1.5867233,0.7809944
			s0.597229,1.2003517,0.597229,2.0390663C114.9583588,32.2349586,114.7628174,32.9641228,114.3717346,33.484787z"/>
	</g>
	<path class="st0" d="M117.8646011,21.7455406H87.7411423c-1.1793365,0-2.1353683,0.9560318-2.1353683,2.1354008v12.2381153
		c0,1.1793709,0.9560318,2.1354027,2.1353683,2.1354027h30.1234589c1.1793671,0,2.1353989-0.9560318,2.1353989-2.1354027V23.8809414
		C120,22.7015724,119.0439682,21.7455406,117.8646011,21.7455406z M119.0349884,36.1190567
		c0,0.6453819-0.5250473,1.1704254-1.1703873,1.1704254H87.7411423c-0.6453476,0-1.1703873-0.5250435-1.1703873-1.1704254
		V23.8809414c0-0.64538,0.5250397-1.1704235,1.1703873-1.1704235h30.1234589c0.64534,0,1.1703873,0.5250435,1.1703873,1.1704235
		V36.1190567z"/>
</g>
</svg>
